<svg aria-roledescription="er" role="graphics-document document" viewBox="0 0 455.90625 554" style="max-width: 455.90625px;" xmlns="http://www.w3.org/2000/svg" width="100%" id="mermaidSvgChart"><style>#mermaidSvgChart{font-family:"trebuchet ms",verdana,arial,sans-serif;font-size:16px;fill:#ccc;}#mermaidSvgChart .error-icon{fill:#a44141;}#mermaidSvgChart .error-text{fill:#ddd;stroke:#ddd;}#mermaidSvgChart .edge-thickness-normal{stroke-width:2px;}#mermaidSvgChart .edge-thickness-thick{stroke-width:3.5px;}#mermaidSvgChart .edge-pattern-solid{stroke-dasharray:0;}#mermaidSvgChart .edge-pattern-dashed{stroke-dasharray:3;}#mermaidSvgChart .edge-pattern-dotted{stroke-dasharray:2;}#mermaidSvgChart .marker{fill:lightgrey;stroke:lightgrey;}#mermaidSvgChart .marker.cross{stroke:lightgrey;}#mermaidSvgChart svg{font-family:"trebuchet ms",verdana,arial,sans-serif;font-size:16px;}#mermaidSvgChart .entityBox{fill:#1f2020;stroke:#81B1DB;}#mermaidSvgChart .attributeBoxOdd{fill:hsl(0, 0%, 32%);stroke:#81B1DB;}#mermaidSvgChart .attributeBoxEven{fill:hsl(0, 0%, 22%);stroke:#81B1DB;}#mermaidSvgChart .relationshipLabelBox{fill:hsl(20, 1.5873015873%, 12.3529411765%);opacity:0.7;background-color:hsl(20, 1.5873015873%, 12.3529411765%);}#mermaidSvgChart .relationshipLabelBox rect{opacity:0.5;}#mermaidSvgChart .relationshipLine{stroke:lightgrey;}#mermaidSvgChart .entityTitleText{text-anchor:middle;font-size:18px;fill:#ccc;}#mermaidSvgChart :root{--mermaid-font-family:"trebuchet ms",verdana,arial,sans-serif;}</style><g></g><defs><marker orient="auto" markerHeight="18" markerWidth="18" refY="9" refX="0" id="ONLY_ONE_START"><path d="M9,0 L9,18 M15,0 L15,18" fill="none" stroke="gray"></path></marker></defs><defs><marker orient="auto" markerHeight="18" markerWidth="18" refY="9" refX="18" id="ONLY_ONE_END"><path d="M3,0 L3,18 M9,0 L9,18" fill="none" stroke="gray"></path></marker></defs><defs><marker orient="auto" markerHeight="18" markerWidth="30" refY="9" refX="0" id="ZERO_OR_ONE_START"><circle r="6" cy="9" cx="21" fill="white" stroke="gray"></circle><path d="M9,0 L9,18" fill="none" stroke="gray"></path></marker></defs><defs><marker orient="auto" markerHeight="18" markerWidth="30" refY="9" refX="30" id="ZERO_OR_ONE_END"><circle r="6" cy="9" cx="9" fill="white" stroke="gray"></circle><path d="M21,0 L21,18" fill="none" stroke="gray"></path></marker></defs><defs><marker orient="auto" markerHeight="36" markerWidth="45" refY="18" refX="18" id="ONE_OR_MORE_START"><path d="M0,18 Q 18,0 36,18 Q 18,36 0,18 M42,9 L42,27" fill="none" stroke="gray"></path></marker></defs><defs><marker orient="auto" markerHeight="36" markerWidth="45" refY="18" refX="27" id="ONE_OR_MORE_END"><path d="M3,9 L3,27 M9,18 Q27,0 45,18 Q27,36 9,18" fill="none" stroke="gray"></path></marker></defs><defs><marker orient="auto" markerHeight="36" markerWidth="57" refY="18" refX="18" id="ZERO_OR_MORE_START"><circle r="6" cy="18" cx="48" fill="white" stroke="gray"></circle><path d="M0,18 Q18,0 36,18 Q18,36 0,18" fill="none" stroke="gray"></path></marker></defs><defs><marker orient="auto" markerHeight="36" markerWidth="57" refY="18" refX="39" id="ZERO_OR_MORE_END"><circle r="6" cy="18" cx="9" fill="white" stroke="gray"></circle><path d="M21,18 Q39,0 57,18 Q39,36 21,18" fill="none" stroke="gray"></path></marker></defs><path style="stroke: gray; fill: none;" marker-start="url(#ONLY_ONE_START)" marker-end="url(#ONE_OR_MORE_END)" d="M353.332,344L353.332,352.333C353.332,360.667,353.332,377.333,353.332,394C353.332,410.667,353.332,427.333,353.332,435.667L353.332,444" class="er relationshipLine"></path><path style="stroke: gray; fill: none;" marker-start="url(#ONLY_ONE_START)" marker-end="url(#ONE_OR_MORE_END)" d="M172.151,88L159.355,96.333C146.56,104.667,120.969,121.333,108.174,139.833C95.379,158.333,95.379,178.667,95.379,188.833L95.379,199" class="er relationshipLine"></path><path style="stroke: gray; fill: none;" marker-start="url(#ONLY_ONE_START)" marker-end="url(#ONE_OR_MORE_END)" d="M276.56,88L289.356,96.333C302.151,104.667,327.741,121.333,340.537,138C353.332,154.667,353.332,171.333,353.332,179.667L353.332,188" class="er relationshipLine"></path><g transform="translate(20,199 )" id="entity-dboCharacters-a3d881f4-c4bb-5610-a6d3-1c8e996b3fb0"><rect height="134" width="150.7578125" y="0" x="0" class="er entityBox"></rect><text style="dominant-baseline: middle; text-anchor: middle; font-size: 12px;" transform="translate(75.37890625,12)" y="0" x="0" id="text-entity-dboCharacters-a3d881f4-c4bb-5610-a6d3-1c8e996b3fb0" class="er entityLabel">dbo.Characters</text><rect height="22" width="73.5" y="24" x="0" class="er attributeBoxOdd"></rect><text style="dominant-baseline: middle; font-size: 10.2px;" transform="translate(5,35)" y="0" x="0" id="text-entity-dboCharacters-a3d881f4-c4bb-5610-a6d3-1c8e996b3fb0-attr-1-type" class="er entityLabel">int</text><rect height="22" width="53.6484375" y="24" x="73.5" class="er attributeBoxOdd"></rect><text style="dominant-baseline: middle; font-size: 10.2px;" transform="translate(78.5,35)" y="0" x="0" id="text-entity-dboCharacters-a3d881f4-c4bb-5610-a6d3-1c8e996b3fb0-attr-1-name" class="er entityLabel">Id</text><rect height="22" width="23.609375" y="24" x="127.1484375" class="er attributeBoxOdd"></rect><text style="dominant-baseline: middle; font-size: 10.2px;" transform="translate(132.1484375,35)" y="0" x="0" id="text-entity-dboCharacters-a3d881f4-c4bb-5610-a6d3-1c8e996b3fb0-attr-1-comment" class="er entityLabel">PK</text><rect height="22" width="73.5" y="46" x="0" class="er attributeBoxEven"></rect><text style="dominant-baseline: middle; font-size: 10.2px;" transform="translate(5,57)" y="0" x="0" id="text-entity-dboCharacters-a3d881f4-c4bb-5610-a6d3-1c8e996b3fb0-attr-2-type" class="er entityLabel">nvarchar(100)</text><rect height="22" width="53.6484375" y="46" x="73.5" class="er attributeBoxEven"></rect><text style="dominant-baseline: middle; font-size: 10.2px;" transform="translate(78.5,57)" y="0" x="0" id="text-entity-dboCharacters-a3d881f4-c4bb-5610-a6d3-1c8e996b3fb0-attr-2-name" class="er entityLabel">FullName</text><rect height="22" width="23.609375" y="46" x="127.1484375" class="er attributeBoxEven"></rect><text style="dominant-baseline: middle; font-size: 10.2px;" transform="translate(132.1484375,57)" y="0" x="0" id="text-entity-dboCharacters-a3d881f4-c4bb-5610-a6d3-1c8e996b3fb0-attr-2-comment" class="er entityLabel"></text><rect height="22" width="73.5" y="68" x="0" class="er attributeBoxOdd"></rect><text style="dominant-baseline: middle; font-size: 10.2px;" transform="translate(5,79)" y="0" x="0" id="text-entity-dboCharacters-a3d881f4-c4bb-5610-a6d3-1c8e996b3fb0-attr-3-type" class="er entityLabel">nvarchar(100)</text><rect height="22" width="53.6484375" y="68" x="73.5" class="er attributeBoxOdd"></rect><text style="dominant-baseline: middle; font-size: 10.2px;" transform="translate(78.5,79)" y="0" x="0" id="text-entity-dboCharacters-a3d881f4-c4bb-5610-a6d3-1c8e996b3fb0-attr-3-name" class="er entityLabel">Alias</text><rect height="22" width="23.609375" y="68" x="127.1484375" class="er attributeBoxOdd"></rect><text style="dominant-baseline: middle; font-size: 10.2px;" transform="translate(132.1484375,79)" y="0" x="0" id="text-entity-dboCharacters-a3d881f4-c4bb-5610-a6d3-1c8e996b3fb0-attr-3-comment" class="er entityLabel"></text><rect height="22" width="73.5" y="90" x="0" class="er attributeBoxEven"></rect><text style="dominant-baseline: middle; font-size: 10.2px;" transform="translate(5,101)" y="0" x="0" id="text-entity-dboCharacters-a3d881f4-c4bb-5610-a6d3-1c8e996b3fb0-attr-4-type" class="er entityLabel">nvarchar(50)</text><rect height="22" width="53.6484375" y="90" x="73.5" class="er attributeBoxEven"></rect><text style="dominant-baseline: middle; font-size: 10.2px;" transform="translate(78.5,101)" y="0" x="0" id="text-entity-dboCharacters-a3d881f4-c4bb-5610-a6d3-1c8e996b3fb0-attr-4-name" class="er entityLabel">Gender</text><rect height="22" width="23.609375" y="90" x="127.1484375" class="er attributeBoxEven"></rect><text style="dominant-baseline: middle; font-size: 10.2px;" transform="translate(132.1484375,101)" y="0" x="0" id="text-entity-dboCharacters-a3d881f4-c4bb-5610-a6d3-1c8e996b3fb0-attr-4-comment" class="er entityLabel"></text><rect height="22" width="73.5" y="112" x="0" class="er attributeBoxOdd"></rect><text style="dominant-baseline: middle; font-size: 10.2px;" transform="translate(5,123)" y="0" x="0" id="text-entity-dboCharacters-a3d881f4-c4bb-5610-a6d3-1c8e996b3fb0-attr-5-type" class="er entityLabel">nvarchar(-1)</text><rect height="22" width="53.6484375" y="112" x="73.5" class="er attributeBoxOdd"></rect><text style="dominant-baseline: middle; font-size: 10.2px;" transform="translate(78.5,123)" y="0" x="0" id="text-entity-dboCharacters-a3d881f4-c4bb-5610-a6d3-1c8e996b3fb0-attr-5-name" class="er entityLabel">Picture</text><rect height="22" width="23.609375" y="112" x="127.1484375" class="er attributeBoxOdd"></rect><text style="dominant-baseline: middle; font-size: 10.2px;" transform="translate(132.1484375,123)" y="0" x="0" id="text-entity-dboCharacters-a3d881f4-c4bb-5610-a6d3-1c8e996b3fb0-attr-5-comment" class="er entityLabel"></text></g><g transform="translate(278.23828125,444 )" id="entity-dboFranchises-f263bb7c-b190-51d5-8155-ab32ee908e96"><rect height="90" width="150.1875" y="0" x="0" class="er entityBox"></rect><text style="dominant-baseline: middle; text-anchor: middle; font-size: 12px;" transform="translate(75.09375,12)" y="0" x="0" id="text-entity-dboFranchises-f263bb7c-b190-51d5-8155-ab32ee908e96" class="er entityLabel">dbo.Franchises</text><rect height="22" width="65.5546875" y="24" x="0" class="er attributeBoxOdd"></rect><text style="dominant-baseline: middle; font-size: 10.2px;" transform="translate(5,35)" y="0" x="0" id="text-entity-dboFranchises-f263bb7c-b190-51d5-8155-ab32ee908e96-attr-1-type" class="er entityLabel">int</text><rect height="22" width="61.0234375" y="24" x="65.5546875" class="er attributeBoxOdd"></rect><text style="dominant-baseline: middle; font-size: 10.2px;" transform="translate(70.5546875,35)" y="0" x="0" id="text-entity-dboFranchises-f263bb7c-b190-51d5-8155-ab32ee908e96-attr-1-name" class="er entityLabel">Id</text><rect height="22" width="23.609375" y="24" x="126.578125" class="er attributeBoxOdd"></rect><text style="dominant-baseline: middle; font-size: 10.2px;" transform="translate(131.578125,35)" y="0" x="0" id="text-entity-dboFranchises-f263bb7c-b190-51d5-8155-ab32ee908e96-attr-1-comment" class="er entityLabel">PK</text><rect height="22" width="65.5546875" y="46" x="0" class="er attributeBoxEven"></rect><text style="dominant-baseline: middle; font-size: 10.2px;" transform="translate(5,57)" y="0" x="0" id="text-entity-dboFranchises-f263bb7c-b190-51d5-8155-ab32ee908e96-attr-2-type" class="er entityLabel">nvarchar(-1)</text><rect height="22" width="61.0234375" y="46" x="65.5546875" class="er attributeBoxEven"></rect><text style="dominant-baseline: middle; font-size: 10.2px;" transform="translate(70.5546875,57)" y="0" x="0" id="text-entity-dboFranchises-f263bb7c-b190-51d5-8155-ab32ee908e96-attr-2-name" class="er entityLabel">Name</text><rect height="22" width="23.609375" y="46" x="126.578125" class="er attributeBoxEven"></rect><text style="dominant-baseline: middle; font-size: 10.2px;" transform="translate(131.578125,57)" y="0" x="0" id="text-entity-dboFranchises-f263bb7c-b190-51d5-8155-ab32ee908e96-attr-2-comment" class="er entityLabel"></text><rect height="22" width="65.5546875" y="68" x="0" class="er attributeBoxOdd"></rect><text style="dominant-baseline: middle; font-size: 10.2px;" transform="translate(5,79)" y="0" x="0" id="text-entity-dboFranchises-f263bb7c-b190-51d5-8155-ab32ee908e96-attr-3-type" class="er entityLabel">nvarchar(-1)</text><rect height="22" width="61.0234375" y="68" x="65.5546875" class="er attributeBoxOdd"></rect><text style="dominant-baseline: middle; font-size: 10.2px;" transform="translate(70.5546875,79)" y="0" x="0" id="text-entity-dboFranchises-f263bb7c-b190-51d5-8155-ab32ee908e96-attr-3-name" class="er entityLabel">Description</text><rect height="22" width="23.609375" y="68" x="126.578125" class="er attributeBoxOdd"></rect><text style="dominant-baseline: middle; font-size: 10.2px;" transform="translate(131.578125,79)" y="0" x="0" id="text-entity-dboFranchises-f263bb7c-b190-51d5-8155-ab32ee908e96-attr-3-comment" class="er entityLabel"></text></g><g transform="translate(270.7578125,188 )" id="entity-dboMovies-096f6633-9410-5114-9765-dc2a1ae49c3f"><rect height="156" width="165.1484375" y="0" x="0" class="er entityBox"></rect><text style="dominant-baseline: middle; text-anchor: middle; font-size: 12px;" transform="translate(82.57421875,12)" y="0" x="0" id="text-entity-dboMovies-096f6633-9410-5114-9765-dc2a1ae49c3f" class="er entityLabel">dbo.Movies</text><rect height="22" width="73.5" y="24" x="0" class="er attributeBoxOdd"></rect><text style="dominant-baseline: middle; font-size: 10.2px;" transform="translate(5,35)" y="0" x="0" id="text-entity-dboMovies-096f6633-9410-5114-9765-dc2a1ae49c3f-attr-1-type" class="er entityLabel">int</text><rect height="22" width="68.0390625" y="24" x="73.5" class="er attributeBoxOdd"></rect><text style="dominant-baseline: middle; font-size: 10.2px;" transform="translate(78.5,35)" y="0" x="0" id="text-entity-dboMovies-096f6633-9410-5114-9765-dc2a1ae49c3f-attr-1-name" class="er entityLabel">Id</text><rect height="22" width="23.609375" y="24" x="141.5390625" class="er attributeBoxOdd"></rect><text style="dominant-baseline: middle; font-size: 10.2px;" transform="translate(146.5390625,35)" y="0" x="0" id="text-entity-dboMovies-096f6633-9410-5114-9765-dc2a1ae49c3f-attr-1-comment" class="er entityLabel">PK</text><rect height="22" width="73.5" y="46" x="0" class="er attributeBoxEven"></rect><text style="dominant-baseline: middle; font-size: 10.2px;" transform="translate(5,57)" y="0" x="0" id="text-entity-dboMovies-096f6633-9410-5114-9765-dc2a1ae49c3f-attr-2-type" class="er entityLabel">nvarchar(100)</text><rect height="22" width="68.0390625" y="46" x="73.5" class="er attributeBoxEven"></rect><text style="dominant-baseline: middle; font-size: 10.2px;" transform="translate(78.5,57)" y="0" x="0" id="text-entity-dboMovies-096f6633-9410-5114-9765-dc2a1ae49c3f-attr-2-name" class="er entityLabel">Title</text><rect height="22" width="23.609375" y="46" x="141.5390625" class="er attributeBoxEven"></rect><text style="dominant-baseline: middle; font-size: 10.2px;" transform="translate(146.5390625,57)" y="0" x="0" id="text-entity-dboMovies-096f6633-9410-5114-9765-dc2a1ae49c3f-attr-2-comment" class="er entityLabel"></text><rect height="22" width="73.5" y="68" x="0" class="er attributeBoxOdd"></rect><text style="dominant-baseline: middle; font-size: 10.2px;" transform="translate(5,79)" y="0" x="0" id="text-entity-dboMovies-096f6633-9410-5114-9765-dc2a1ae49c3f-attr-3-type" class="er entityLabel">int</text><rect height="22" width="68.0390625" y="68" x="73.5" class="er attributeBoxOdd"></rect><text style="dominant-baseline: middle; font-size: 10.2px;" transform="translate(78.5,79)" y="0" x="0" id="text-entity-dboMovies-096f6633-9410-5114-9765-dc2a1ae49c3f-attr-3-name" class="er entityLabel">ReleaseYear</text><rect height="22" width="23.609375" y="68" x="141.5390625" class="er attributeBoxOdd"></rect><text style="dominant-baseline: middle; font-size: 10.2px;" transform="translate(146.5390625,79)" y="0" x="0" id="text-entity-dboMovies-096f6633-9410-5114-9765-dc2a1ae49c3f-attr-3-comment" class="er entityLabel"></text><rect height="22" width="73.5" y="90" x="0" class="er attributeBoxEven"></rect><text style="dominant-baseline: middle; font-size: 10.2px;" transform="translate(5,101)" y="0" x="0" id="text-entity-dboMovies-096f6633-9410-5114-9765-dc2a1ae49c3f-attr-4-type" class="er entityLabel">nvarchar(50)</text><rect height="22" width="68.0390625" y="90" x="73.5" class="er attributeBoxEven"></rect><text style="dominant-baseline: middle; font-size: 10.2px;" transform="translate(78.5,101)" y="0" x="0" id="text-entity-dboMovies-096f6633-9410-5114-9765-dc2a1ae49c3f-attr-4-name" class="er entityLabel">Genre</text><rect height="22" width="23.609375" y="90" x="141.5390625" class="er attributeBoxEven"></rect><text style="dominant-baseline: middle; font-size: 10.2px;" transform="translate(146.5390625,101)" y="0" x="0" id="text-entity-dboMovies-096f6633-9410-5114-9765-dc2a1ae49c3f-attr-4-comment" class="er entityLabel"></text><rect height="22" width="73.5" y="112" x="0" class="er attributeBoxOdd"></rect><text style="dominant-baseline: middle; font-size: 10.2px;" transform="translate(5,123)" y="0" x="0" id="text-entity-dboMovies-096f6633-9410-5114-9765-dc2a1ae49c3f-attr-5-type" class="er entityLabel">nvarchar(50)</text><rect height="22" width="68.0390625" y="112" x="73.5" class="er attributeBoxOdd"></rect><text style="dominant-baseline: middle; font-size: 10.2px;" transform="translate(78.5,123)" y="0" x="0" id="text-entity-dboMovies-096f6633-9410-5114-9765-dc2a1ae49c3f-attr-5-name" class="er entityLabel">Director</text><rect height="22" width="23.609375" y="112" x="141.5390625" class="er attributeBoxOdd"></rect><text style="dominant-baseline: middle; font-size: 10.2px;" transform="translate(146.5390625,123)" y="0" x="0" id="text-entity-dboMovies-096f6633-9410-5114-9765-dc2a1ae49c3f-attr-5-comment" class="er entityLabel"></text><rect height="22" width="73.5" y="134" x="0" class="er attributeBoxEven"></rect><text style="dominant-baseline: middle; font-size: 10.2px;" transform="translate(5,145)" y="0" x="0" id="text-entity-dboMovies-096f6633-9410-5114-9765-dc2a1ae49c3f-attr-6-type" class="er entityLabel">int</text><rect height="22" width="68.0390625" y="134" x="73.5" class="er attributeBoxEven"></rect><text style="dominant-baseline: middle; font-size: 10.2px;" transform="translate(78.5,145)" y="0" x="0" id="text-entity-dboMovies-096f6633-9410-5114-9765-dc2a1ae49c3f-attr-6-name" class="er entityLabel">FranchiseId</text><rect height="22" width="23.609375" y="134" x="141.5390625" class="er attributeBoxEven"></rect><text style="dominant-baseline: middle; font-size: 10.2px;" transform="translate(146.5390625,145)" y="0" x="0" id="text-entity-dboMovies-096f6633-9410-5114-9765-dc2a1ae49c3f-attr-6-comment" class="er entityLabel">FK</text></g><g transform="translate(155.328125,20 )" id="entity-dboCharacterMovie-a7a8e8e7-7200-5f41-a387-02911920226c"><rect height="68" width="138.0546875" y="0" x="0" class="er entityBox"></rect><text style="dominant-baseline: middle; text-anchor: middle; font-size: 12px;" transform="translate(69.02734375,12)" y="0" x="0" id="text-entity-dboCharacterMovie-a7a8e8e7-7200-5f41-a387-02911920226c" class="er entityLabel">dbo.CharacterMovie</text><rect height="22" width="22.963541666666668" y="24" x="0" class="er attributeBoxOdd"></rect><text style="dominant-baseline: middle; font-size: 10.2px;" transform="translate(5,35)" y="0" x="0" id="text-entity-dboCharacterMovie-a7a8e8e7-7200-5f41-a387-02911920226c-attr-1-type" class="er entityLabel">int</text><rect height="22" width="70.58854166666667" y="24" x="22.963541666666668" class="er attributeBoxOdd"></rect><text style="dominant-baseline: middle; font-size: 10.2px;" transform="translate(27.963541666666668,35)" y="0" x="0" id="text-entity-dboCharacterMovie-a7a8e8e7-7200-5f41-a387-02911920226c-attr-1-name" class="er entityLabel">CharactersId</text><rect height="22" width="44.502604166666664" y="24" x="93.55208333333334" class="er attributeBoxOdd"></rect><text style="dominant-baseline: middle; font-size: 10.2px;" transform="translate(98.55208333333334,35)" y="0" x="0" id="text-entity-dboCharacterMovie-a7a8e8e7-7200-5f41-a387-02911920226c-attr-1-comment" class="er entityLabel">PK, FK</text><rect height="22" width="22.963541666666668" y="46" x="0" class="er attributeBoxEven"></rect><text style="dominant-baseline: middle; font-size: 10.2px;" transform="translate(5,57)" y="0" x="0" id="text-entity-dboCharacterMovie-a7a8e8e7-7200-5f41-a387-02911920226c-attr-2-type" class="er entityLabel">int</text><rect height="22" width="70.58854166666667" y="46" x="22.963541666666668" class="er attributeBoxEven"></rect><text style="dominant-baseline: middle; font-size: 10.2px;" transform="translate(27.963541666666668,57)" y="0" x="0" id="text-entity-dboCharacterMovie-a7a8e8e7-7200-5f41-a387-02911920226c-attr-2-name" class="er entityLabel">MoviesId</text><rect height="22" width="44.502604166666664" y="46" x="93.55208333333334" class="er attributeBoxEven"></rect><text style="dominant-baseline: middle; font-size: 10.2px;" transform="translate(98.55208333333334,57)" y="0" x="0" id="text-entity-dboCharacterMovie-a7a8e8e7-7200-5f41-a387-02911920226c-attr-2-comment" class="er entityLabel">PK, FK</text></g><rect height="14" width="10.0078125" y="387" x="348.3280944824219" class="er relationshipLabelBox"></rect><text style="text-anchor: middle; dominant-baseline: middle; font-size: 12px;" y="394" x="353.3320007324219" id="rel1" class="er relationshipLabel">Id</text><rect height="14" width="10.0078125" y="124.57548522949219" x="109.77593231201172" class="er relationshipLabelBox"></rect><text style="text-anchor: middle; dominant-baseline: middle; font-size: 12px;" y="131.5754852294922" x="114.77983856201172" id="rel2" class="er relationshipLabel">Id</text><rect height="13.999992370605469" width="10.0078125" y="120.4118766784668" x="325.8424987792969" class="er relationshipLabelBox"></rect><text style="text-anchor: middle; dominant-baseline: middle; font-size: 12px;" y="127.41187286376953" x="330.8464050292969" id="rel3" class="er relationshipLabel">Id</text></svg>